<svg xmlns="http://www.w3.org/2000/svg" viewBox="0 0 600 600" >
  <circle id="circle" style="stroke-width:16;stroke-dasharray:none;stroke-opacity:1" cx="300.064" cy="300.064" r="292.823"/><path d="M470.302 268.42a13.719 12.933 0 0 1 .302 15.485c-28.215 37.06-135.334 177.609-140.21 183.7l.087.141c-.065-2.836-.183-5.673-.194-8.5q-.087-35.017-.13-70.025c-1.208-9.018 2.912-16.126 8.391-23.162 22.908-29.425 45.471-59.094 68.325-88.56 2.513-3.254 2.233-5.338-.259-8.47-7.495-9.364-129.866-168.377-137.782-178.788a9.297 8.765 0 0 1-2.07-5.39c.075-24.188 0-48.245 0-73.206 4.648 2.389 167.172 212.606 203.54 256.774z" data-name="Capa 5" style="stroke-width:1.04719;fill:#fcbf05"/><path d="m276 324.1-.12-68.87c0-2.71-.11-5.41-.18-8.12-2.88 3.82-32.16 44.49-62.84 87.16 0-7.42.05-12.23.05-12.77V145.85a37.65 37.65 0 0 0-.52-8.31c-5.19-22.85-37.16-54.33-64.61-50.72-9.2 1.21-9.34.19-9.34 9.66v318.48c0 3.87-.09 7.73.09 11.58.67 14.28 6.05 21.26 19.8 24.65 13.75 3.39 28.11 2.46 42.24 2.46 13.66 0 12.73 1.22 12.27-12.49v-.08a50.38 50.38 0 0 1 9.63-31.18c15.25-21 30.46-42.08 45.83-63 5.02-6.9 8.83-13.9 7.7-22.8zm-.29-77.23a1.93 1.93 0 0 1 0 .24l.08-.1z" style="fill:#464f5b" transform="matrix(1.07853 0 0 1.01677 -23.364 -5.03)" data-name="Capa 2"/><path d="M220.848 331.58a13.719 12.933 0 0 1-.302-15.485c28.215-37.06 135.334-177.609 140.21-183.7l-.087-.141c.065 2.836.183 5.673.194 8.5q.076 35.017.13 70.025c1.207 9.018-2.912 16.126-8.391 23.162-22.92 29.425-45.482 59.094-68.325 88.56-2.513 3.254-2.233 5.338.258 8.47 7.55 9.364 129.866 168.377 137.783 178.788a9.297 8.765 0 0 1 1.984 5.39c-.075 24.188 0 48.245 0 73.206-4.562-2.389-167.129-212.606-203.454-256.774z" data-name="Capa 6" style="stroke-width:1.04719;fill:#7851b1"/><g data-name="Capa 8"><path d="M230.441 292.02c-.17-3.58-.31-5.28-.31-7q-.25-54.67-.46-109.35c0-3.9-.13-7.67-2.69-11-1.42-1.86-2.19-3.43-4.46-2.9-2.66.63-2.44 3.29-2.46 5-.1 13.08-.06 26.16-.05 39.24q.06 47.92.15 95.85c0 3.24 0 6.82 4.12 7.69 3.71.78 6.2 0 9-3.91 3.59-5 84.88-114.46 87.12-118.09 2.81-4.55-.58-10.07-3.81-9.69-1.82.21-3.18 2-4.38 3.44z" style="fill:#936edb" transform="matrix(1.10693 0 0 1.00312 -32.962 -8.345)"/><path d="M349.396 530.564c9.173 12.864 18.436 25.65 27.67 38.465l1.493-.568c-.608-6.175 1.726-12.516-2.564-18.451-14.623-20.28-29.024-40.727-43.586-61.075q-36.167-50.685-72.374-101.32c-2.1-2.937-4.837-4.939-8.09-2.975-3.585 2.16-2.386 5.31-.276 8.278q23.773 33.473 47.476 67.016zm30.835-105.143c-2.322 3.261-4.54 8.903-9.736 5.311-5.196-3.592-2.004-8.286.863-12.233q40.59-55.673 81.19-111.415c3.987-5.468 8.233-10.744 12.52-16.32 4.52 11.898-2.81 19.218-8.283 26.934z" style="fill:#e2a90a" transform="matrix(1.10693 0 0 1.00312 -32.962 -8.345)"/></g>
<style>
    html[data-theme="light"] .theme-toggle {
      #circle { fill: #000; stroke: #FFF }
    }
    html[data-theme="dark"] .theme-toggle {
      #circle { fill: #ccc; stroke: #000 }
    }
</style>

</svg>
